<mxfile host="app.diagrams.net" modified="2022-09-26T14:38:51.933Z" agent="5.0 (Windows NT 10.0; Win64; x64) AppleWebKit/537.36 (KHTML, like Gecko) Chrome/105.0.0.0 Safari/537.36" etag="z7stI4PxiyVmija7qcVM" version="20.3.6" type="github">
  <diagram name="Page-1" id="e7e014a7-5840-1c2e-5031-d8a46d1fe8dd">
    <mxGraphModel dx="1209" dy="618" grid="1" gridSize="10" guides="1" tooltips="1" connect="1" arrows="1" fold="1" page="1" pageScale="1" pageWidth="1169" pageHeight="826" background="none" math="0" shadow="0">
      <root>
        <mxCell id="0" />
        <mxCell id="1" parent="0" />
        <mxCell id="S_h2aRfodZm2qJKZXut_-76" value="驾驶员" style="swimlane;whiteSpace=wrap" vertex="1" parent="1">
          <mxGeometry x="164.5" y="128" width="280" height="662" as="geometry" />
        </mxCell>
        <mxCell id="S_h2aRfodZm2qJKZXut_-108" style="edgeStyle=orthogonalEdgeStyle;rounded=0;orthogonalLoop=1;jettySize=auto;html=1;exitX=0.5;exitY=1;exitDx=0;exitDy=0;entryX=0.5;entryY=0;entryDx=0;entryDy=0;strokeColor=#FF0000;endArrow=openThin;endFill=0;" edge="1" parent="S_h2aRfodZm2qJKZXut_-76" source="S_h2aRfodZm2qJKZXut_-104" target="S_h2aRfodZm2qJKZXut_-93">
          <mxGeometry relative="1" as="geometry">
            <mxPoint x="127.22000000000003" y="377.3299999999999" as="targetPoint" />
          </mxGeometry>
        </mxCell>
        <mxCell id="S_h2aRfodZm2qJKZXut_-111" value="是" style="edgeLabel;html=1;align=center;verticalAlign=middle;resizable=0;points=[];" vertex="1" connectable="0" parent="S_h2aRfodZm2qJKZXut_-108">
          <mxGeometry x="-0.1252" y="2" relative="1" as="geometry">
            <mxPoint as="offset" />
          </mxGeometry>
        </mxCell>
        <mxCell id="S_h2aRfodZm2qJKZXut_-104" value="是否按照指引驾驶" style="rhombus;whiteSpace=wrap;html=1;" vertex="1" parent="S_h2aRfodZm2qJKZXut_-76">
          <mxGeometry x="65.5" y="245" width="125" height="80" as="geometry" />
        </mxCell>
        <mxCell id="S_h2aRfodZm2qJKZXut_-93" value="" style="ellipse;html=1;shape=endState;fillColor=#000000;strokeColor=#ff0000;" vertex="1" parent="S_h2aRfodZm2qJKZXut_-76">
          <mxGeometry x="113" y="562" width="30" height="30" as="geometry" />
        </mxCell>
        <mxCell id="S_h2aRfodZm2qJKZXut_-81" value="语音引导" style="swimlane;whiteSpace=wrap" vertex="1" parent="1">
          <mxGeometry x="445" y="128" width="280" height="662" as="geometry">
            <mxRectangle x="445" y="128" width="60" height="30" as="alternateBounds" />
          </mxGeometry>
        </mxCell>
        <mxCell id="S_h2aRfodZm2qJKZXut_-83" value="语音提醒相应操作" style="" vertex="1" parent="S_h2aRfodZm2qJKZXut_-81">
          <mxGeometry x="95" y="110" width="110" height="50" as="geometry" />
        </mxCell>
        <mxCell id="S_h2aRfodZm2qJKZXut_-88" value="提醒违章" style="" vertex="1" parent="S_h2aRfodZm2qJKZXut_-81">
          <mxGeometry x="85" y="382" width="110" height="50" as="geometry" />
        </mxCell>
        <mxCell id="S_h2aRfodZm2qJKZXut_-112" style="edgeStyle=orthogonalEdgeStyle;rounded=0;orthogonalLoop=1;jettySize=auto;html=1;exitX=0.5;exitY=1;exitDx=0;exitDy=0;entryX=0.5;entryY=-0.053;entryDx=0;entryDy=0;entryPerimeter=0;strokeColor=#FF0000;endArrow=openThin;endFill=0;" edge="1" parent="S_h2aRfodZm2qJKZXut_-81" source="S_h2aRfodZm2qJKZXut_-105" target="S_h2aRfodZm2qJKZXut_-88">
          <mxGeometry relative="1" as="geometry">
            <Array as="points">
              <mxPoint x="140" y="352" />
              <mxPoint x="140" y="352" />
            </Array>
          </mxGeometry>
        </mxCell>
        <mxCell id="S_h2aRfodZm2qJKZXut_-105" value="是否违章" style="rhombus;whiteSpace=wrap;html=1;" vertex="1" parent="S_h2aRfodZm2qJKZXut_-81">
          <mxGeometry x="77" y="245" width="125" height="80" as="geometry" />
        </mxCell>
        <mxCell id="S_h2aRfodZm2qJKZXut_-123" value="是" style="edgeLabel;html=1;align=center;verticalAlign=middle;resizable=0;points=[];" vertex="1" connectable="0" parent="S_h2aRfodZm2qJKZXut_-81">
          <mxGeometry x="45" y="407" as="geometry">
            <mxPoint x="104" y="-61" as="offset" />
          </mxGeometry>
        </mxCell>
        <mxCell id="S_h2aRfodZm2qJKZXut_-98" value="导航" style="swimlane;whiteSpace=wrap" vertex="1" parent="1">
          <mxGeometry x="725" y="128" width="280" height="662" as="geometry" />
        </mxCell>
        <mxCell id="S_h2aRfodZm2qJKZXut_-99" value="" style="edgeStyle=orthogonalEdgeStyle;rounded=0;orthogonalLoop=1;jettySize=auto;html=1;entryX=0.501;entryY=0;entryDx=0;entryDy=0;entryPerimeter=0;exitX=0.5;exitY=1;exitDx=0;exitDy=0;strokeColor=#FF0000;endArrow=openThin;endFill=0;" edge="1" parent="S_h2aRfodZm2qJKZXut_-98" source="S_h2aRfodZm2qJKZXut_-100" target="S_h2aRfodZm2qJKZXut_-101">
          <mxGeometry relative="1" as="geometry" />
        </mxCell>
        <mxCell id="S_h2aRfodZm2qJKZXut_-100" value="" style="ellipse;shape=startState;fillColor=#000000;strokeColor=#ff0000;" vertex="1" parent="S_h2aRfodZm2qJKZXut_-98">
          <mxGeometry x="115" y="40" width="30" height="30" as="geometry" />
        </mxCell>
        <mxCell id="S_h2aRfodZm2qJKZXut_-101" value="检测到路况变化" style="" vertex="1" parent="S_h2aRfodZm2qJKZXut_-98">
          <mxGeometry x="75" y="110" width="110" height="50" as="geometry" />
        </mxCell>
        <mxCell id="S_h2aRfodZm2qJKZXut_-102" value="重新路径规划" style="" vertex="1" parent="S_h2aRfodZm2qJKZXut_-98">
          <mxGeometry x="75" y="258" width="130" height="55" as="geometry" />
        </mxCell>
        <mxCell id="S_h2aRfodZm2qJKZXut_-107" style="edgeStyle=orthogonalEdgeStyle;rounded=0;orthogonalLoop=1;jettySize=auto;html=1;entryX=0.5;entryY=0;entryDx=0;entryDy=0;strokeColor=#FF0000;endArrow=openThin;endFill=0;" edge="1" parent="1" target="S_h2aRfodZm2qJKZXut_-104">
          <mxGeometry relative="1" as="geometry">
            <mxPoint x="540" y="263" as="sourcePoint" />
          </mxGeometry>
        </mxCell>
        <mxCell id="S_h2aRfodZm2qJKZXut_-109" style="edgeStyle=orthogonalEdgeStyle;rounded=0;orthogonalLoop=1;jettySize=auto;html=1;exitX=1;exitY=0.5;exitDx=0;exitDy=0;entryX=0;entryY=0.5;entryDx=0;entryDy=0;strokeColor=#FF0000;endArrow=openThin;endFill=0;" edge="1" parent="1" source="S_h2aRfodZm2qJKZXut_-104" target="S_h2aRfodZm2qJKZXut_-105">
          <mxGeometry relative="1" as="geometry" />
        </mxCell>
        <mxCell id="S_h2aRfodZm2qJKZXut_-110" value="否" style="edgeLabel;html=1;align=center;verticalAlign=middle;resizable=0;points=[];" vertex="1" connectable="0" parent="S_h2aRfodZm2qJKZXut_-109">
          <mxGeometry x="-0.3772" y="-4" relative="1" as="geometry">
            <mxPoint as="offset" />
          </mxGeometry>
        </mxCell>
        <mxCell id="S_h2aRfodZm2qJKZXut_-113" style="edgeStyle=orthogonalEdgeStyle;rounded=0;orthogonalLoop=1;jettySize=auto;html=1;entryX=1;entryY=0.5;entryDx=0;entryDy=0;exitX=0.512;exitY=1.04;exitDx=0;exitDy=0;exitPerimeter=0;strokeColor=#FF0000;endArrow=openThin;endFill=0;" edge="1" parent="1" source="S_h2aRfodZm2qJKZXut_-88" target="S_h2aRfodZm2qJKZXut_-93">
          <mxGeometry relative="1" as="geometry">
            <Array as="points">
              <mxPoint x="585" y="562" />
              <mxPoint x="585" y="705" />
            </Array>
          </mxGeometry>
        </mxCell>
        <mxCell id="S_h2aRfodZm2qJKZXut_-114" style="edgeStyle=orthogonalEdgeStyle;rounded=0;orthogonalLoop=1;jettySize=auto;html=1;exitX=1;exitY=0.5;exitDx=0;exitDy=0;entryX=0.008;entryY=0.497;entryDx=0;entryDy=0;entryPerimeter=0;strokeColor=#FF0000;endArrow=openThin;endFill=0;" edge="1" parent="1" source="S_h2aRfodZm2qJKZXut_-105" target="S_h2aRfodZm2qJKZXut_-102">
          <mxGeometry relative="1" as="geometry" />
        </mxCell>
        <mxCell id="S_h2aRfodZm2qJKZXut_-122" value="否" style="edgeLabel;html=1;align=center;verticalAlign=middle;resizable=0;points=[];" vertex="1" connectable="0" parent="S_h2aRfodZm2qJKZXut_-114">
          <mxGeometry x="-0.3262" y="-2" relative="1" as="geometry">
            <mxPoint as="offset" />
          </mxGeometry>
        </mxCell>
        <mxCell id="S_h2aRfodZm2qJKZXut_-115" style="edgeStyle=orthogonalEdgeStyle;rounded=0;orthogonalLoop=1;jettySize=auto;html=1;entryX=1.009;entryY=0.507;entryDx=0;entryDy=0;entryPerimeter=0;strokeColor=#FF0000;endArrow=openThin;endFill=0;" edge="1" parent="1" target="S_h2aRfodZm2qJKZXut_-83">
          <mxGeometry relative="1" as="geometry">
            <mxPoint x="800" y="263" as="sourcePoint" />
          </mxGeometry>
        </mxCell>
        <mxCell id="S_h2aRfodZm2qJKZXut_-121" style="edgeStyle=orthogonalEdgeStyle;rounded=0;orthogonalLoop=1;jettySize=auto;html=1;strokeColor=#FF0000;endArrow=openThin;endFill=0;" edge="1" parent="1">
          <mxGeometry relative="1" as="geometry">
            <mxPoint x="865" y="444" as="sourcePoint" />
            <mxPoint x="580" y="705" as="targetPoint" />
            <Array as="points">
              <mxPoint x="865" y="444" />
              <mxPoint x="865" y="705" />
            </Array>
          </mxGeometry>
        </mxCell>
      </root>
    </mxGraphModel>
  </diagram>
</mxfile>
